<mxfile host="app.diagrams.net" agent="Mozilla/5.0 (Windows NT 10.0; Win64; x64) AppleWebKit/537.36 (KHTML, like Gecko) Chrome/130.0.0.0 Safari/537.36" version="24.8.0">
  <diagram name="Page-1" id="01MzUgLAMDW8xZEqnqvF">
    <mxGraphModel dx="921" dy="373" grid="1" gridSize="10" guides="1" tooltips="1" connect="1" arrows="1" fold="1" page="1" pageScale="1" pageWidth="850" pageHeight="1100" math="0" shadow="0">
      <root>
        <mxCell id="0" />
        <mxCell id="1" parent="0" />
        <mxCell id="zaFSHCAwjgW-AeNehu4j-25" style="edgeStyle=orthogonalEdgeStyle;rounded=0;orthogonalLoop=1;jettySize=auto;html=1;exitX=0.87;exitY=0.65;exitDx=0;exitDy=0;exitPerimeter=0;entryX=0;entryY=0.75;entryDx=0;entryDy=0;strokeColor=#007FFF;" edge="1" parent="1" source="zaFSHCAwjgW-AeNehu4j-5" target="zaFSHCAwjgW-AeNehu4j-1">
          <mxGeometry relative="1" as="geometry" />
        </mxCell>
        <mxCell id="zaFSHCAwjgW-AeNehu4j-5" value="" style="verticalLabelPosition=bottom;html=1;verticalAlign=top;align=center;strokeColor=none;fillColor=#00BEF2;shape=mxgraph.azure.user;" vertex="1" parent="1">
          <mxGeometry x="166.5" y="330" width="47.5" height="50" as="geometry" />
        </mxCell>
        <mxCell id="zaFSHCAwjgW-AeNehu4j-43" style="edgeStyle=orthogonalEdgeStyle;rounded=0;orthogonalLoop=1;jettySize=auto;html=1;exitX=0.5;exitY=1;exitDx=0;exitDy=0;entryX=0.75;entryY=0;entryDx=0;entryDy=0;strokeColor=#33FF33;" edge="1" parent="1" source="zaFSHCAwjgW-AeNehu4j-7" target="zaFSHCAwjgW-AeNehu4j-1">
          <mxGeometry relative="1" as="geometry" />
        </mxCell>
        <mxCell id="zaFSHCAwjgW-AeNehu4j-7" value="" style="shape=image;verticalLabelPosition=bottom;labelBackgroundColor=default;verticalAlign=top;aspect=fixed;imageAspect=0;image=data:image/jpeg,/9j/4AAQSkZJRgABAQAAAQABAAD/2wCEAAkGBxISEhUQEBMWFRUSGRUXFRUXFhYYGBcVFxUWGBcbGB4YHSggGB0lGxUVITEhJSkrLi4uFyAzODMtNyg5LisBCgoKDg0OFxAQFS0fHR0tLSsrKys3KystLSs3LSstKysrLS0tKy0rKys3KysrLSstKy0rLS03KystKys3LSsrK//AABEIAOEA4QMBIgACEQEDEQH/xAAcAAEAAgIDAQAAAAAAAAAAAAAABwgCBgEDBQT/xAA+EAABAwIEBAQEBAUDAgcAAAABAAIDBBEFITFBBgcSURMiYXEyQlKBkaGxwRQjYtHwCDNyFUMXU5KissLh/8QAFgEBAQEAAAAAAAAAAAAAAAAAAAEC/8QAGhEBAQEAAwEAAAAAAAAAAAAAAAERITFBYf/aAAwDAQACEQMRAD8Ag1ERAREQEREBERAREQEREBERAREQEREBERAREQEREBERAREQEREBERAREQEREBERAREQEREBERAREQEREBERAREQEREBERAREQEREBERAREQEREBERAREQERdkEDnuaxgLnOIDWgXJJNgANzdAhhc9wawFznEBrQCSSdAANSpWwHkVWSsD6mdlOXZhnSZXj/AJWIAPpcreuUvLMULRV1bQ6qcPK3IiBpGg7vO520HrJyCt3EvJKup2GWnkZVNaLlrWlklvRpJDvYG6jB7SCQciMiDqCrv3VaOfWCx0+IiSIBoqYxI5oyHidRa4/ewPvdBGqIiAiIgIiICIiAiIgIiICIiAiIgIiICIu2kh63tYPnc1v4kD90Eh8s+VsmJAVM7jDTXIBA88pGvRfIAH5ipaj5NYOG2MDyfqM0t/ycB+S3bC6FkEMcEYAZExrGgdmgBfSSgrxzI5PupGOqqAulhbm+I5yRjdwI+Nv2uPXaJldWsqA0ZlVZ5jx0j8Qc3DWlwcQHNYLtMxNiIgNb9hlfRBqlPA57gxjS5ziA1oFySdAANSrH8peWbaFrauraHVThk3IiBp2H9fc7aD1cpeWbaFrauraHVThk05iAEaDu+2p20HrJyAuCuCV4/FHElPh8Dqipf0tGTW/M91rhrBuf0Qc8UcR09BA6oqX9LRk1o+J7tmsG5/TVVmxvEqnG64zOFh8LQPhiiBJA9TmT6n0XZjOLVmOVfW/JgyYwfBCw7Du4211JUv8AAvBrKeNo6c9TfUnLM9yrIlqL+L+WktPTtraYOkiA/mt1fH/V6s79vbSPFdRkYY22VtwdLb3VWeYlNRuxB7MMBc1xsWMF2+KSQWxWzcNMhvolGrQQOe4MY0uc4gNa0XJJ0AA1KnTgnkhF4bZsULi9wB8BjukMvs9wzLvYge69zlNyzbQNFXVtDqpwybkRADsO7zudtBveTVFR3X8l8JewtjikidbJ7ZZHEHvaQkFQbzA4GnwqYMk88Ul/CmAsHW1BHyuHZW2JWlc4MNZPhVT1gEwt8Vh3a5hBy9xcfdBVJERAREQEREBERAREQEREBZRuIIIyIzHuMwsUQXC4J4ljxCkjqYyLkBsrd2SAeYH75juCF6tXVBguVUngri+ow2cTQG7TYSxE+WRvY9j2dt66Hc+PuZb6/ppaBr2tm6Wuy/mOc7Lw2gepsTv7IlfTzM5iPqHmhoCSHHofIy5dI45dEdttrjXb13flLyzbQtFXVtDqpw8rdRA07Du/udtB3OXKjlk2gaKqqAdVOGQ1EAI0b3f3d9h3MmFFcrAlCV4PGHFNPh1O6oqD6Rxi3VI/Zrf3OwQZcW8T0+HU7qipdloxg+OR+zWj99gqtcZcWVGJTmoqDkLiOMfDGzs317ndY8YcU1GI1BqKg+kcY+GNmzW/udyvCQbzy04mipphDVZRPOUn/lvNs3d2n8lZihZ5QQQQRcOGYIOYt9lS8KVuUfM00hbQ1rr0xNo5DrCTse8d/wD0+yupidscw41EEsAeWeKx7Osat62ltx7XutS5b8rocMJnleJ6g5Nf02bG3+kEnzHc/wCHfY3hwDmkEEXBGYIOhCzBUIyJWJKErElFcqNOevEzKehNICDNV2b07tiBu5x9DbpHv6Lp4o51UdO6WGnZJPIy4a8dIhL/AHv1EA9hnb7qAMcxearmfU1Dy+SQ3JOg7Bo2AGQCD4EREBERAREQEREBERAREQERd9DRyTSNiiY573kNaxouST2CDikpnyPbHG0ue8hrWgXJJ0ACslyq5ZMoGtqqoNfVuFxuIQdm93W1d9h69vKzlrHhzBUVAD6t4zOoiBGbWevd34ZKRUArElCVrvGvF1PhsBmnN3OuIogfNI7sOwG52QZcZ8WU+GwGec3JyjjHxSO7D07nZVxqqmrxysMszjbQAfBEz6WDv6/crieasxurM0xJF7C3wxt2Ywf53KmvgjhKKnjaGtse577+6sjNqNuLeVD46YVdEHP8Mfzojm6w1ezv6t/BRarkV1cyBhc4hoaCSSQAANSTsqwcQxsxDEXNwyA2ldZrGj4nfM+3yNOvpqlWVr+G4fLPK2CBhkkkNmsbqT+3uVIeN8qpKenb5uqe3U+3wX+ge31d1L3LXl7DhcXU6z6mQWkl2A+iO+jfXey2bEaJrwQ4JCoH5V8yX0Dhh9eT4F+lr3XvASdD3j/T2VhGShwDmkFrgCCDcEHQhQnx/wAuvGvJCLSDQ7O9Hf32Xs8jWYhFFNT1jXNhjLfAD7XB83WG5/B8J7Z5JZhKlQlQRza5mmcuw7DnEsJ6JZW3vIb2LI7fLsTv7aubPMwzk4dhryWE9MsrNZDp0RkfL3I19tfm5ccAO6mzTgdZGn0D++aSaW41f/w2rHUhqY29bmXL4h8XTv0fUQLEj8LrSiFczB8PbE3paAM75eqivm7ys8TrxDD2efN00DR8fd8YHzd2jXbPVSIGRckW1XCiiIiAiIgIiICIiAiIg+igopJpGwwsc+SQhrGNFySeysxys5bx4azxp7Pq3jzO1EQOrGfu7f2XkcgeFY4qX/qD2gzVBcGEjNkTTaw7dRBJ9AFLN0BYEoStW4+41gwuDxJPPK+/gwg2Lz3P0sG5/dBnx3xnBhcHiynqkfcRQg+Z7h+jRcXcqu8ScQ1FfM6oqX9T3aAZNY3ZrBsAsOIsenrZ3VNS7qe/7BrRo1o2aOy8tBO3Jqopp2BkYayaFtnxdxkC9t8yCdexUoV9YyBhc5waGglzibBrRmSVUbCcTlppWTwPLJIzdrh+h7g6ELdMZ4prsckiooI7F9utjCbPeNXuPysGtjpbdXUx9fGHFNTjFSKDD2udE42AGRlINy59/hYNc+1z6THy34AhwuK+T6iQDxZf/ozs0fn+mfLngOHC4bCz6iQDxZbf+1vZo/PVbgSouBXW9ckrgncoPmmpwRmFBXNbmQHdWH4e/wDl5tmmafj7sYfp7nf217ub3NDxevD6B38vNs0wPx92MI+XYnfTTWGkTHo8P4n/AA07Zi0PDciDrY62OxVpuDauCop2T0zg6NwHu1wGbXDYhVHW0cBcaT4ZP4kfmifYTRE5Pb3HZw2KumLbMC7F5XDmOwV0Dammf1Mf+LXbtcNiF6iiof5t8qxP1V2HttLmZYWjKTcuZ2f3G/vrX9zSCQRYjIhXhVff9QnC8cE0VfC0NFSXNlAyHitFw63dwvf/AI+qCH0REBERAREQEREBERBankviTZsJgDdYeqJ47Oa4kfi0g/dbuSqk8BccVGFyl8VnxyW8WFxsHW0IPyuHf1UqVfPql8I+DSzGW2QeWBgPqQ4kj7IN35gcbwYXB1v88z7iGEHNx7n6WDc/ZV7pqWrxipdU1DnO6j5nDZo+SMbAD/CVlQ0dVjFU6qqnFwcR1O0FtmMHytGn/wCqcuEeG2wNAaAA3tstSe1m1X3jHhGow+QNlF45M45ADZw1sezhuFritxxfHSOpZI63pMHSS/q+S2jmnUOG1s1V/CsCkrKr+FoWuk63O6CRa0YOT5Nmi1iVKsdGAYLPWTspqZhfI/QbAbucflaNyrR8u+BYcLh6W2fO8fzprZuP0t7NHb7rPl9wPBhcHQyz5ngeNNbNx7N7MB0H3Oa2tRQlYErlxWBO6DlQTzd5mmUuw7D3Hov0zTNPxnQxst8uxO+mmvHNrmeZi7D8Ocei5bNM3WQ6FkZHy9yNdstfN5d8Ckls8o82oB+Uf3Vk1LceLhHLSqqKZ0seUoHU2I5dY+kE6O/Lb1WkVEDo3OZI0tc0kOaRYgjUEK4GF0bYmW0Fsiod58xUPUyRtm1h+IMHxxfVL2PY6n7ZL8JUPLc+DuXtRXRuqTeOBoPS4jORw2YOw3P29vb5UcsX1zhV1bS2lb8I0dMRsNwzud9vSxAo2MYI42hrGANa1oADQMgABoFFVf4cx6rwKrNvNG63iR38krO47OHfZWV4bx+CugbU0zupjtR8zXbtcNnBaJx9wUypafLnrcag9x/ZRLgeNVuBVZ6RdjvjjN+iVo3HZw77eytiSrUqGv8AUliDPApaa/ndI6W3ZrW9P5l/5FdlVz8pfDJipZjJbIPLAy/uCSR9lC3E/EE9fUPqql13vsABk1rRo1o2A/uoryUREBERAREQEREBERAWcJAIJFwLXF7XHZYIgsbyzbT1EDZKcgtbYOjFuqJw2cP33W7YticdNG6SRwa1gJc46ABVX4S4mqMPnE9O70ew/DIzdrv2Oy2rHMerMfqo6SljLWGxEZdkNOqSUj5Rf/CVdZxjj+N1mO1baSka4x38rNBYayykaAeunuVOvAHBMGFweHH55XgeNMRm9w2H0tGzfxuVzwHwXBhcHhReaR9jNMR5nu7ejRnYfutnUajklYkrXOOeMYMMg8abzPdcRRA+aR37NG5UIw87cSE4ke2F0d84Qyw6b6B1+oG2+fsgseSoH5t80vF6qDD3/wAvMTTtPx7FjD9Pc7+2vycyubZq4v4WgDo4ntHjPdk91xmwW0bsTv7axMg37lThME8x6j1TMzaw2+DK7m9yN1YTDqFsQBtaw/ZVEoaySGRs0Lix8ZDmuBzBCl6p5z9VELR2rPhIt/Kvb/c9v6e/pmrvjOc62rmVzBjoWeHHZ1Q8eRl7hg+t/p2G60rlly9lxOU4liXWYS7qAdcOqHd/SMaZa6DILnlly6lxKT/qWJFxhc7qa13xVDr6ntHlb1tYZKwcUbWNDWgNa0AAAWAAyAHZLVkIo2saGsAa1oAAAsABoABojiuSVior554uoKGOdVVRwx/w7mh9RILtaD/tjZ7u3oN/Ze7x1zip6V0tNSMM07AW+Jl4TJNDfd/T2GVxa6r5iFbJPI6aZ5fJIS573G5JP+aK6mPmREUUREQEREBERAREQEREBEWTRc2G6D1OGeHp6+dtNTN6nu1J+Fjd3OOwCtLwHwZBhcHhReaR1jLKR5nu/Zo2C6OW3B8WG0jGBo8aRrXTybl5F+m/0tvYD77rbEArWuOeMqfDIPFmPU91xFED5pHD9GjK5XpcRYsKWnmqC0u8GN7+kau6Wk2/JVafU1GMVpknku9+dh8rBoyMbAX/AFKDulkrMZq3TzEm5sdeljL5MYP87lSxgvLuB8BgljHS8ezmm2RafqBsvR4L4XjhjaGtAA/H1v6re6SENAst9Mdqqcd8GT4ZN4cvmjfcxSgeV47Hs4bhawrj8SYVT1dO+nqWB8bvxadnNOzh3VVeM+H/AOAqn03iNkDbFrm69J0Dh8ru4/usNvDAUscpOVzqssra5pbTg3jiORmtoXdo/wD5e2vZyj5XGpLa6vZanFnRRHWbs5w2j9Pm9tbCMaAAAAABYAZAAaAIOGMDQGtAAAsAMgANAOyEoSsUBQvzd5odPXh2Hv8ANm2edp+HYsjI+bYu20GenPN/mf0dWHYe/wA5u2edp+HYxxkfN3cNNBnpqvLvgZ0jmzTt/wCLSNPU+v6Kyalrw8L5eVdRA6WJt3tHUI7ZuHYH6t7LUJIy0lrgQQSCCLEEGxBB0KuHgOGthaABZRpz24HjdE7FKdobIywqANHtJsH/APIG1zuPZKTUCoiKKIiICIiAiIgIiICIiAu6kl6HseRcNc0n7EFdK5QXapahsjGSMN2va1zT3DgCPyK7CVAfKfmqymibQ4gSI2ZQzZnobsx416RsRp9lLzeMsNLPEFdTdPfxox+RN7+iD7cUputpacwciO4Kq9x1Qw0NcRRS2LD1EN/7Ul79IO/ttopL5kc4I2sNNhb+p7sn1AB6WDtHfV39WgUEveSbk3JzJOpJRMWU5WcfRYgwQTdLKqMeZuglAGb2fu3b2W/yPDRcqmNFVyRSNlicWPjIc1zTYgjcKVK7nJJJRBvRar+EvAHh6f7gH1f06X9MlStp5ncxRSNMEBDqhwyGoiB+Z39XYfj6+Byq5Zvq3jEsTDjG49ccb79Uzr365L/J6fN7a/Pya4GGISOxKtvJHHIQ1js/FlADiX31aLjLc+ysIBbIJaSDWgCwFgMgBoFwUJXCiuFC/N7mj0deH4dJ5s2zztPw92Rnv3cNNBnphze5pdPXh+HvzzbPO06bGOMjfYu20GekGkoN75XYDFUylxcDJGRaM7N+od/2VhMFwhsQyGqqZhGKS00rZ4HlkkZu1w/MHuD2ViuCubNDVRgVUjKacAdYeemNx3LHHIA9ibj1V3hM51IjGWWpc3K1kWE1XX/3GiNo7ue4AW/M/ZfdiPHOGwNLpK2DIXsyRr3H2awklV/5pcwXYpK1kYLKaEksafie7Trd2yyA2+6itDREQEREBERAREQEREBERAREQEREBERAXK4RBYb/AE744x9HJREgSQyF4HeOS2frZwcD7hS3dUtwTGJqSZlRTPLJGHIjcbgjcHcFTFhPPwdFqqkJeLeaJ4sTubOHl/EoJuUKc4OaHT14dh7882zztOmxjjI32LttBnpr3GPOiqqo3QUsf8Mx1w54d1SlvYEABn2z9VFpQcIiICIiAiIgIiICIiAiIgIiICIiAiIgIiICIiAiIgIiICIiAiIgIiICIiAiIgIiICIiAiIgIiICIiAiIgIiICIiAiIgIiICIiAiIgIiICIiAiIgIiICIiAiIgIiICIiAiIgIiICIiAiIgIiICIiAiIgIiICIiAiIgIiICIiAiIgIiIP/9k=;" vertex="1" parent="1">
          <mxGeometry x="450" y="171.11" width="80" height="80" as="geometry" />
        </mxCell>
        <mxCell id="zaFSHCAwjgW-AeNehu4j-14" style="edgeStyle=orthogonalEdgeStyle;rounded=0;orthogonalLoop=1;jettySize=auto;html=1;exitX=0.5;exitY=1;exitDx=0;exitDy=0;strokeColor=#FF66FF;" edge="1" parent="1" source="zaFSHCAwjgW-AeNehu4j-4" target="zaFSHCAwjgW-AeNehu4j-1">
          <mxGeometry relative="1" as="geometry" />
        </mxCell>
        <mxCell id="zaFSHCAwjgW-AeNehu4j-4" value="" style="shape=image;verticalLabelPosition=bottom;labelBackgroundColor=default;verticalAlign=top;aspect=fixed;imageAspect=0;image=https://w7.pngwing.com/pngs/930/585/png-transparent-ar-arweave-mining-exchange-coins-crypto-blockchain-cryptocurrency-logo-glyph-icon.png;" vertex="1" parent="1">
          <mxGeometry x="318" y="167.5" width="60" height="60" as="geometry" />
        </mxCell>
        <mxCell id="zaFSHCAwjgW-AeNehu4j-10" value="" style="sketch=0;pointerEvents=1;shadow=0;dashed=0;html=1;strokeColor=none;fillColor=#505050;labelPosition=center;verticalLabelPosition=bottom;verticalAlign=top;outlineConnect=0;align=center;shape=mxgraph.office.concepts.upload;" vertex="1" parent="1">
          <mxGeometry x="214" y="170" width="48" height="55" as="geometry" />
        </mxCell>
        <mxCell id="zaFSHCAwjgW-AeNehu4j-12" value="" style="endArrow=classic;html=1;rounded=0;entryX=0;entryY=0.5;entryDx=0;entryDy=0;strokeColor=#007FFF;" edge="1" parent="1" source="zaFSHCAwjgW-AeNehu4j-10" target="zaFSHCAwjgW-AeNehu4j-4">
          <mxGeometry width="50" height="50" relative="1" as="geometry">
            <mxPoint x="340" y="270" as="sourcePoint" />
            <mxPoint x="390" y="220" as="targetPoint" />
          </mxGeometry>
        </mxCell>
        <mxCell id="zaFSHCAwjgW-AeNehu4j-20" style="edgeStyle=orthogonalEdgeStyle;rounded=0;orthogonalLoop=1;jettySize=auto;html=1;exitX=1;exitY=0.5;exitDx=0;exitDy=0;strokeColor=#FF66FF;" edge="1" parent="1" source="zaFSHCAwjgW-AeNehu4j-1" target="zaFSHCAwjgW-AeNehu4j-17">
          <mxGeometry relative="1" as="geometry" />
        </mxCell>
        <mxCell id="zaFSHCAwjgW-AeNehu4j-40" style="edgeStyle=orthogonalEdgeStyle;rounded=0;orthogonalLoop=1;jettySize=auto;html=1;exitX=0;exitY=0.25;exitDx=0;exitDy=0;entryX=0.5;entryY=1;entryDx=0;entryDy=0;strokeColor=#007FFF;" edge="1" parent="1" source="zaFSHCAwjgW-AeNehu4j-1" target="zaFSHCAwjgW-AeNehu4j-39">
          <mxGeometry relative="1" as="geometry" />
        </mxCell>
        <mxCell id="zaFSHCAwjgW-AeNehu4j-1" value="" style="shape=image;verticalLabelPosition=bottom;labelBackgroundColor=default;verticalAlign=top;aspect=fixed;imageAspect=0;image=https://weave-mint.vercel.app/weavemint.svg;" vertex="1" parent="1">
          <mxGeometry x="262" y="300.00000000000006" width="116" height="69.88" as="geometry" />
        </mxCell>
        <mxCell id="zaFSHCAwjgW-AeNehu4j-21" style="edgeStyle=orthogonalEdgeStyle;rounded=0;orthogonalLoop=1;jettySize=auto;html=1;entryX=0;entryY=0.5;entryDx=0;entryDy=0;strokeColor=#FF66FF;" edge="1" parent="1" source="zaFSHCAwjgW-AeNehu4j-17" target="zaFSHCAwjgW-AeNehu4j-16">
          <mxGeometry relative="1" as="geometry" />
        </mxCell>
        <mxCell id="zaFSHCAwjgW-AeNehu4j-47" style="edgeStyle=orthogonalEdgeStyle;rounded=0;orthogonalLoop=1;jettySize=auto;html=1;exitX=1;exitY=0.5;exitDx=0;exitDy=0;entryX=0.5;entryY=1;entryDx=0;entryDy=0;strokeColor=#FF66FF;" edge="1" parent="1" source="zaFSHCAwjgW-AeNehu4j-16" target="zaFSHCAwjgW-AeNehu4j-45">
          <mxGeometry relative="1" as="geometry" />
        </mxCell>
        <mxCell id="zaFSHCAwjgW-AeNehu4j-16" value="Encode Data&lt;div&gt;via Ethers&lt;/div&gt;" style="shape=step;perimeter=stepPerimeter;whiteSpace=wrap;html=1;fixedSize=1;" vertex="1" parent="1">
          <mxGeometry x="480" y="314.94" width="110" height="40" as="geometry" />
        </mxCell>
        <mxCell id="zaFSHCAwjgW-AeNehu4j-17" value="" style="dashed=0;outlineConnect=0;html=1;align=center;labelPosition=center;verticalLabelPosition=bottom;verticalAlign=top;shape=mxgraph.weblogos.json" vertex="1" parent="1">
          <mxGeometry x="400" y="303.69" width="60" height="62.5" as="geometry" />
        </mxCell>
        <mxCell id="zaFSHCAwjgW-AeNehu4j-23" value="" style="endArrow=classic;startArrow=classic;html=1;rounded=0;entryX=0;entryY=0.5;entryDx=0;entryDy=0;exitX=1;exitY=0.75;exitDx=0;exitDy=0;" edge="1" parent="1" source="zaFSHCAwjgW-AeNehu4j-4" target="zaFSHCAwjgW-AeNehu4j-7">
          <mxGeometry width="50" height="50" relative="1" as="geometry">
            <mxPoint x="330" y="320" as="sourcePoint" />
            <mxPoint x="380" y="270" as="targetPoint" />
          </mxGeometry>
        </mxCell>
        <mxCell id="zaFSHCAwjgW-AeNehu4j-24" style="edgeStyle=orthogonalEdgeStyle;rounded=0;orthogonalLoop=1;jettySize=auto;html=1;exitX=0.25;exitY=1;exitDx=0;exitDy=0;entryX=0.5;entryY=1;entryDx=0;entryDy=0;entryPerimeter=0;strokeColor=#33FF33;" edge="1" parent="1" source="zaFSHCAwjgW-AeNehu4j-1" target="zaFSHCAwjgW-AeNehu4j-5">
          <mxGeometry relative="1" as="geometry" />
        </mxCell>
        <mxCell id="zaFSHCAwjgW-AeNehu4j-26" value="" style="shape=image;verticalLabelPosition=bottom;labelBackgroundColor=default;verticalAlign=top;aspect=fixed;imageAspect=0;image=data:image/png,iVBORw0KGgoAAAANSUhEUgAAAOEAAADhCAMAAAAJbSJIAAAAb1BMVEUggeL///8Ad+AAeuEAdeDs8vwAeODo8Pu90/QTfuEOfOHO3/cPfeF+revf6vrK3Pbz9/2KtO1Mk+bY5fiPt+1wpemlxPCyzPJCjuVzp+penOclg+K50fOiw/A0ieTH2vaVu+5poelXmOeDsOw7i+QkXUvwAAANTElEQVR4nOWd6YKyOBBFIcFo0rT7guLStvP+zzjgRkBIqpKK0jP330x/IsfslVqiOLim48l+vbysdvPseMyjKD9m893qslzvJ+Np+K+PQj58ODpsM8GEUCpNpYwqSZmmiovib9n2MBqGfIlQhMPRbC4YVzWuNsmClLH5bB8KMwThcLONSjgLW42zwJTbTQhKcsLTLGc8RcBVSjnLZyfqF6Il3J9d6TTK8570nQgJRwUepmd2SRaQI7rXoiJcXISgwLtDCnFZEL0ZDeEmY36d81UpyzYk70ZAOJgJkt7ZlOR8SbAj8CYcrxIVAO8mlWzHHyZc7JIQzVcpTXaeA9KLcByar5RMdl7t6EE4PL+B78Z49tjsuBNe3sR3Y7y8nXAtws0vbVJi/VbCxVG8la+UOLpNOU6E32/soJVk8v0mwlP63g5aSaUOJw884Tb5EF+pZBuccCE/1YA3KfkVlnD5yQa8KVkGJJxm/NN8hXiG2o9jCCee53cqpXwShvDn8z30oeQnBOGuDz30Ib4jJ5wePzuHNqWO0MEIJByjrJ/vkFTAMxWMcNKfIVgpgc03IMJNHwELRJCpCkJ46CdggXigIfxhnybpFAOsGnbCZX8BC0T7Fs5K2GtACKKNsMdd9CZrR7UQHvoOWCBaphszYU+Xibosi4aRsJcL/avMS7+JcPw3AAtE0wbOQDjt117bJGXYhhsIj33bbHdLHl0Id3+nCYtG7D4vdhL+9OnAaxfvXBa7CP/INFqpc0LtIJyGa0HFkoQFGAGiY7bpIMxCWdVSdRjG8WBNbzNIMwzhMlQTyqetc07+G/L2TXgr4VewQZhXX3Ikf3jSavBvJQy2EArt7uiL/gpSQglX4VZC/Wty8qerFYzwFOzEJGtvsKWfzVjL/WILYbjLibR2iTsL8EUphPA7XB9tEAb4IvV6Ef5CuCCcR5WoN1N4wih5cWd4ISQ8UajD5JLrPqdvIHw9ZTQJ14RzuCotKMPNiov7DuYNhNGL302TkHSRYvcNzOLwm5QeRu8gjISZ8EL6rfq4P83+Sdg7CFXDQaxOOCDeriU1j7vBptaDAhFGycBAeCber6Um95dQhPLcTUhvXGv8nm8hbJjeaoS/9Ic2gyvaJZT3n6wZbXRCysX+oaTbzrf4DrUBri37OuEuwKlJme6GxlGYc1qtETXCMCZuZiAsTvphjAn6SNQIV0F+UGW+GroE6an6Ma0ipF4Ln99mJIzXQb5Wm8MrwmWgyZtborROIRC14V8RUo4IpT1Mzs2E8SJETBF/JdwQEvLDSVvrmM15aWANpXV4hee16ZMwI4yt29WmLdOqf9M0J0eUT/vwg3BMOKeVh6aF9rzmeaYFkf4m79lzHoQXOrPQrYNofYIDwl7JEdPHIepBSDcK7/1DG9fpr50wzqktb4+55k44otsFP86E2hMNm9OnptQ7ODGqEdIdDJ9XlVq/V5CYJWq3gccx8U5IN888bV3aXCM7Lr7qopzsSjGdcE82DLWDi3a5ZDoIVyK+8rpPcDdCsk6q254OVbcDddNij0raivdueiMke7J+b6Bt5a07t7tobxRYRTih6qT1ux9tSYTMpqXmlBPqLfDkSkh1C5Se652uahHIol+K1EMinT0Jqe4qeb2lhtps2nZ32SZSL5f8QTgkGoai6QapzaYKSEg6FNnwTkh0cEpfphPtUG09Qj1F8i43XXfIJSGRgeZ10fuqfjoFTuNBuCpex0ZJSAPIW0xODgOxWJzp9uDyRkgzDFsdILXJP2/5c7umdOt+ORALwhHJMGz10/2pBmICJtQ/5anSChYR3ZCoWdu7auYagcgXQEZYvlVEtY9ofdVB1eE4ImMQWSOWu8WIZlPa7lKmmw6MFxgNTcmmU1YSUkw0addMWfUPxGRK6C5VTDURyUTDu171+/mq0OPFVWRefcVUE+nHOFexzn21PqIQhGRzjToUhP49Qnbb0jbVq9qtppq+qU4724LQ39jNug9/2hBALIh0ZhWZFYTeXd6U/UdbEA2/w6sGVPsaEUfeeySjIc2VkMw3i02jse+zElMeLq2X4gipLorEOJp4EppX8o3TxrTQjmiqEZPId0ybzwzaGbhzzWwVlX2T76O139LTtV17NEX1oobwsoCEah0tvbqDsuRtqoaAhGcjKUXlnpUuo2+vR1kMTNruC7PzjunMf/I7Wvm0IbP4WWhbE5tLRkNU66FcRT6uXtaeh7xDrPRFZRmWu2ju8XHbEqeZKWEXbE/ReWbOo8z9wy8W4KZ0izAkDUklf7KHssg9hMx64tOdamA3iA8RRn0dI/dJy7hdK6XtvFDnX1JvbI9JuTu2+C49Qkyg8qxTOhG6E5pC4G/S+z/4YuYqqvPvTa6MrwFGDen3PQqRQY7YDzR3JWzGbbxKn+9xJydSb+zceS61vaa+orUbxLtEG+F5dFwPrXuwWk/DNSEN2UOZ454mvQyGJg1+tckCNwqJIzznrvvSlJmlPxU1kRI7RRf7Uq+zBUjWzZ2uKXEgTXG28DsfQoQ63FOnqyjOh35nfIAYJrUxeZh1ccb3tNNY1YiVM2tDHl+i1tE+MCFmpQC7C0meZLCFnO+97aUWCcS5EOhgqgQ7b6ZAhwYx8bd5GyX/gQNCnISlYsflfWDDCMf+9xZGGTOpNQCtQRcpZzutcBnoxdmU4O7JIOsZUpM5HiFVLJ/VU0HB2pDk/rBTmD5qAkwF+12/WBQghNf7Q9wdsOQ2aY+Du+t1B80UIy+6tBZ9gBBe74BR9/jyPLKpcseV4IobXcEWRePND10/E4Tweo+P8sUQgFapvjmffNVV+/T4+b9PbcFrReOl36aKHRDCqy8Gyp8G4rulLdui3oHr9TcuyfMPr3g86W68m4aQKfLqT4O6IkASNgTO/CFWI8tWaAgLdWdovzZI3YXuT0MJmS08Y7hKQPPj3a8Nc0cAuUHqNucCCW35nafgWkV330TMVAMJfum+N4cRCovdag2vtXj3L8VMNSmkOpgfITMDDjCVYO4+whg/b4ODl/Yjd81yEEJLFx2himWWQUpYX32QR0XXRhBAaKmvgqtV9PTVx8RbMEidvmlH+Lmd0JKbG5nw5RlvgRmIsACmad7aA22EkpkXI2yG+GfMDMbxwZgXSX/9tuqkZsKU/ZqvUfH5c+LYIXYN6to0WEassWnr3rVxLhjf2vZLWD4tdg0Tf4ioJjVdfMF23qXst+BoS6MWf4jZmkK7KbnwfVSLIUXdm+MukuiEvuisxQFjHBSRfiNUwqfPqcVyo05QLVlQw2uIv5KqxeOjuil3rerqI7y9rJFTAZUXA+dYQaIN3ubZyIuBym2Cu5ankMutYiO3CS4/DcKSTSOHsNKX/DSotBsYSy+FJg43Dy85hnBDmb+3nzpY5V/zRCFD1hOH0sPOcrkYbsn1hbyhAZ0TaeQUvl7FkTnn3JNv27y5OBq05txDhqamuPgJdzlFz2he5XruS9yjJLjWqZecEoynrbkv0flL0+gNY9EtL25H/lK016MU2CrgaLklAOvKQevwe2FqKzvJLRVfZx5hh2AjngXtqW4+YHWztW8+bxmyGR2d3Az5vJ2iAFSE8sOHa+CY89OUk93lJF2I5xj/Sqj2zNFJpBEHQlMbgYsLInUJRMOdqyeTuTaCewx1yvLZiWwLsNhC70BfZalv4VOjRInkuP3Zf43HAw+NF/tLjrpCawDaapR4JoOVqjTQe0lwH59ee52ZIOUD3ihAraCQ9Z7CC1LvKWTNrvAC1ewKWHctuIB110LWzgsraO28v9tPwfUPA9awDCpEDctwdUhDClOHNGAt2XDC1ZINWQ84lJD1gP/7NZ3/B3W5/we11QOUnAgnU3IAAyF1sYKAUoaztynqPEwRrwAyRq4Y4+r/yITaOY3aCePNX0C0+KRaciNgPTo/IGbx0bJlf/jpOyKz2dyt+S2W/Ua0xWYACPuNaAcEEPa5o1q7KIwwPvR1Rk0gjqCg/MU9XTQsywSGsJ9Lv3mhRxLGY9W3bbhUQPdBaJbt6bFf+3AF9nWB5xHf9elIzOHZUBGZ0n/6MxgxzgOYXPAT0Q8LXCrgUS04wniKiW4MJp7hUodh/nEZsPVpvijBpevFEsZf6WfnVCWxnmZYwjhefXKbmmDqgLgSxqePNaNKHZyvHQjjGBwPTyqZgDOJeBPGi2PY7FJtEkc3pyQ3wtLv5r1dVZmqaAQhLINc39dVZQLJdEBNGA/PsPQb3kqTs4cXqwdhcab6dfUfREgmv15hVl6ExZSzC9xX02Tn6fXoSVi046ot8p5IKtl6h8l5E8bxYCZ4iIaUXCwJ/DkJCAttMg9/yXalLKPxPKYhLDrrhQu6hpSCX6iiOKkIC43OjKS3Ss7OuHIfRhESFtqfmacdIC3waH3/aQkLnS45c/TyLRqvI4Ggj8gJCw0324hxlIVVFm0nt5sQATghCEsNRrM5KzFtnFIqzth8tg8VXhSK8Krh6GeVCSaEUqlMddbiv1KlRPG3bHsYBY2dCkp403Q82a+X3+fdPDvmeRTlx2y+O38v1/vJ+A1Bmv8CNhW7F29pg1cAAAAASUVORK5CYII=;" vertex="1" parent="1">
          <mxGeometry x="378" y="410" width="50" height="50" as="geometry" />
        </mxCell>
        <mxCell id="zaFSHCAwjgW-AeNehu4j-27" value="" style="sketch=0;points=[[0,0,0],[0.25,0,0],[0.5,0,0],[0.75,0,0],[1,0,0],[0,1,0],[0.25,1,0],[0.5,1,0],[0.75,1,0],[1,1,0],[0,0.25,0],[0,0.5,0],[0,0.75,0],[1,0.25,0],[1,0.5,0],[1,0.75,0]];points=[[0,0,0],[0.25,0,0],[0.5,0,0],[0.75,0,0],[1,0,0],[0,1,0],[0.25,1,0],[0.5,1,0],[0.75,1,0],[1,1,0],[0,0.25,0],[0,0.5,0],[0,0.75,0],[1,0.25,0],[1,0.5,0],[1,0.75,0]];outlineConnect=0;fontColor=#232F3E;fillColor=#E7157B;strokeColor=#ffffff;dashed=0;verticalLabelPosition=bottom;verticalAlign=top;align=center;html=1;fontSize=12;fontStyle=0;aspect=fixed;shape=mxgraph.aws4.resourceIcon;resIcon=mxgraph.aws4.resource_explorer;" vertex="1" parent="1">
          <mxGeometry x="296" y="410" width="48" height="48" as="geometry" />
        </mxCell>
        <mxCell id="zaFSHCAwjgW-AeNehu4j-35" value="" style="endArrow=classic;startArrow=classic;html=1;rounded=0;exitX=0.5;exitY=0;exitDx=0;exitDy=0;exitPerimeter=0;entryX=0.5;entryY=1;entryDx=0;entryDy=0;" edge="1" parent="1" source="zaFSHCAwjgW-AeNehu4j-27" target="zaFSHCAwjgW-AeNehu4j-1">
          <mxGeometry width="50" height="50" relative="1" as="geometry">
            <mxPoint x="330" y="380" as="sourcePoint" />
            <mxPoint x="380" y="330" as="targetPoint" />
          </mxGeometry>
        </mxCell>
        <mxCell id="zaFSHCAwjgW-AeNehu4j-36" value="" style="endArrow=classic;startArrow=classic;html=1;rounded=0;entryX=0.5;entryY=0;entryDx=0;entryDy=0;exitX=0.75;exitY=1;exitDx=0;exitDy=0;" edge="1" parent="1" source="zaFSHCAwjgW-AeNehu4j-1" target="zaFSHCAwjgW-AeNehu4j-26">
          <mxGeometry width="50" height="50" relative="1" as="geometry">
            <mxPoint x="330" y="380" as="sourcePoint" />
            <mxPoint x="380" y="330" as="targetPoint" />
          </mxGeometry>
        </mxCell>
        <mxCell id="zaFSHCAwjgW-AeNehu4j-41" style="edgeStyle=orthogonalEdgeStyle;rounded=0;orthogonalLoop=1;jettySize=auto;html=1;exitX=0.5;exitY=0;exitDx=0;exitDy=0;strokeColor=#007FFF;" edge="1" parent="1" source="zaFSHCAwjgW-AeNehu4j-39" target="zaFSHCAwjgW-AeNehu4j-10">
          <mxGeometry relative="1" as="geometry" />
        </mxCell>
        <mxCell id="zaFSHCAwjgW-AeNehu4j-39" value="" style="shape=image;verticalLabelPosition=bottom;labelBackgroundColor=default;verticalAlign=top;aspect=fixed;imageAspect=0;image=data:image/jpeg,/9j/4AAQSkZJRgABAQAAAQABAAD/2wCEAAkGBxISEhUSEhIWFRUXGB0VFxUVFxcXFxcYHRkXFxcVFxcYHSggGB0lHRcXITEhJSkrLi4uFx8zODMtNygtLisBCgoKDg0OFxAQFy0eHSYrMC4tLTItKy0tLy0rLS0rLTctLi0rLTcrKy0tLS0tLS0rLS0tLS0vKystLS0tLS0rNf/AABEIAKMBNgMBIgACEQEDEQH/xAAbAAACAgMBAAAAAAAAAAAAAAACAwABBQYHBP/EAEUQAAIBAgIFCQYCBgkFAQAAAAECAAMRBBIFITFRYQYHE0FxkaGx0SIyUnKBwXPwFDOCkrLhFSM1QmKDk8PTFzRUwtIk/8QAGgEAAwEBAQEAAAAAAAAAAAAAAAECAwQGBf/EACcRAQEAAgEDAwQCAwAAAAAAAAABAhEDEiExBDJBE1FhcRSBM7Hw/9oADAMBAAIRAxEAPwDjwhCDCiZCEIQIYgmiEIQBDESKYNh7R95BKXZt6x5NLEEUQEMQBDESaIQhBEJYIoxGN9h5CLWMYeQ8hEioIYgCGIkUYhLAENYM6sGNp7fzuixGUtv53RJWIQgiEsEDhAwBDECGIQgiEIE8ulSQgsbe11dhmPWo2895nv0t7i/N9jMasmtsfa9C1DvPeY1Kh3nvMQsakmoyPVjvPfHK53nvnnSOWSxyPVzvMfmO87B5TzpH+g8hJY5Gqx3xqtxiVjVgytORjGqYlY5YItNWSUJI07rlFoUEQp2PYitCgiEIJogZcqEDEimDYe0eRkHZIuz6jyMgMEUQhiABDiTRXhQIYgiiEa32HlFiG32HkIkVYhCCIaxIohCEGEsEUYjKQ1/ndFiMp/nuiQsGEIIMICCBiEIIhAwIcJYAhiBPJpb3F+b7GY1ZktL+4vzfYzGpJrfH2mpHLFLGrJqMjVjliUjlksMjlj/5eQiFjvQeQkscjVMasUsasGVOWMWKWOWDOmAyS1lQS5QIQgiEJ2vZLhCCDDEE0QhCCDCESKYNh7R5NIJAdX1Hk0gMEUQhCCIYiTRCEIMJTBFGIbfYeQixGsfIeQiRUEO0AQxEzohCgiGIJohGU/z3RYjaZ+/3iQghCCIYggQhCAIwQIQhrAtCBgTyaX9xfm+xmNWZLS3uD5vsZjUk1vj7TkjViljUk1GRyxqRSxqSWGRyx/8ALyE86z0eg8hJY5GLGrFLGrBlTVjliljFgzpqySLJBLlYy8e4Sxl4+EASxO17IwZd58PWGLcfCKEIQTTBl4+ELVx8Il2sCdwvO4aS5nsDSw1WutfFFkpNUAL0ctwhYA2pXtcb4FMbfDjKgWO3aOobjIAOPhAU+z9R5GWsTOm2HHwli3Hw9YsQlESKaLcfCELcYu8fWwtRBd6boNl2VgOy5EEVQtx7hGEDjsG7cIlY4ISwABJNrAC5OobAIkVYtx8IYtx8JKtB0tnRlvszArfiLjXBBiRTABxhi3GKEMQRTBbefCMp2v1+HGJjKW3v8okCFuPhDFuMUIYMEGC3GHq4+EWIQgRigcYYtxixCECVicMHUAkixvqtuIiBoxPibuE9o2fWWsNH1WPKujV+JvCGujl+I9wnpEOLUK5UgYBfiPcIxcEu8+EcsdSos3uqzW+EE+Qh0xPl51wi/EfCDUVQba+rdunqZSDYix6wdRnlqqS5ABJNrAC5OobBIzkkZ5zUEpXj4Rq24xb0WX3lZe0EX74aTNhl2OW3GNW3GIWOWDO04W4yQRJGnblAhCDCE7HsRLLlS4JordRm11ucTSro1JsYxRlKMvRYcXUjKRcU7jUeo3mpOxAJ3C87lpPmfwNPDVa61sSWSk1QAvSy3CFgDale1xvgJL8NE5sOS1HSWIqUa71EVKfSA0ioa4ZVsc6sLWY9U9XOjyNoaMfDrQeq4qrULdKUNsppgZciL8Z39U1fQGncTg2arhaxpOwCFgqNdfetaopG1Rr2xunOUeLxpQ4qsapQEIStNcubKWH9Wq3vlG2+yJG8en8sYsOdg5Kc1GCxWDoYh6uIDVaauwR6YUEjXYGmTb6mcjxNMI7qL2DFRvsCRriRljZ5LfYeydy5+f8As8P+P/t1Jw19h7J3Ln4/7TD/AI/+3Uh8Hh7MnE5l+TeO6DF0K2RqmR1bIguzavdUdZ17JiQZnOR39oYP8el/EsTnx8xsHOLpx9IVqAXCYikyq4COhzOCQbqoFyBl1zTq+GqUzlqIyNa+V1Km3UbMAbTqnOvpNsLpHA4hb/1aljbrXPZ1+qkj6yc9mjldMNjU1gjomYdasOkpG+73/wB8R2NeXj31XfeOXYbDPUOWmjObXsiljbVrsBxHeJdWkyMVdSrDarAqR2g6xOqczmDWhhsTj6updagnqp0wXdhwJNv8uFzY6OXENidK10L1DUc01tmKm2dig6z7QRd2U74tM5wdUx797/pzdtB4oLnOFrhNuY0agW2++W1uM8lIzruE5XaYNcGpo1hQLWKinUzqt9oe9iw2+7r4TB872gqdCvTxFJQorhg4AsudbHNbewbXxW+0mKxOfBJj1Y29vvGj1cBWS2elUS5suZGW53C4FzwjsTorEUlz1MPVpr8T03Ve9ltO58utOJgqK1+jWpVzZKIbYGYHM28AKDs1nZcXms8ieX1TGV/0XF06ZFUMFKKQCQCSjqxNwVB18La7x6mzy9Px459Fy738OUiezBaNr1RelQq1ANpp02cX3EqCJuFbkYn9MDCAEUGHT2BNxS1kpf5wVvtsd82vlLprH4eoMPgMDelTAGfomKnUDlQKQAovbtvstrNM8fTebl8XXbu5BWpMjFXVkYbVYFWHaDrEtFJIABJOoAayTuA651rlJgzjtGNiK+HNHE0VZ7EEEZNbAX1lWUXt1G2208/IDRYw2BbHCia1dwxRQLtlBKqi7bZiLkjqI3Q0P4t69b7a3v8AH6+7ndfRWIppnqYesi/E9N1X6ki081NCSAASTqAFySdgAHX2TrGgOUOk3rqmKwRFJzlLLTdcl9hJJIK9Rvvvwmv6c0MmF0vhxTAVKlWlVVRsU9KAyqOoXF7dWa3VDSc/TySZY263rvNNObB1VYK1Nwze6pRgzdi2ufpLq0HQ5XVkb4XBU8NTax/Ode5Z8oKeBdKgpCpXdSi3NgqA3Y3sSLlhqG23Ccu09pdsXXauyhSwAyqSRqFtp7IWaTz8OHH26t14FnXuSFOngcDTer7JrOrHfeoVVBr2WXKTus05rya0Z+k4mlR6i13+Qe03ZcC3aRNr51tJgvTwoIsg6Rh/iNwg4WW5/aEJ27q9Pfp45ct/U/ZXOfozo8QtcDVVWx+dRbxXL+6ZrHJf+0MP+Kn2nQ8Wf6R0SH96qi5uPSU7h7DewzW+cTnnJb+0MP8Aip9pHJ5heoxk5sMp4tlbRzufr6H4bfxTRlm887v6+h+Gf4poyTPk91cfr/8APn/3wascsSkashw01ZJAZIJcpEsQYU7XshCEIIEIQTV2uLHrm1VecLSro1N8YxRlKMvR0NakZSLinfYe2apUawJ3D7Tumk+aLAU8LVrK+IzJRaoL1EtcIWFxk2XEBJfhoXNdyWoaRxFSjXaoqpS6QGmVBzBlXXmU6rMZ6udPkdh9Gvh1oNUYVVqFulZWtkNMDLlUW98zVtAacxODZquFqmk7AIWCo11961nUjaB3bYzTvKLFY0ocVWNUoCEJWmtg1i3uKL3yjbuiRvHp/LJaP5eaTo01pUsWyU0ARFFOiQoGwXamSfqZr7uWJYnWSSe06yYsQhEzytvlb7D2Tv8AzyaIxGJw1BMPSaqy1sxCC5A6NxfvInAbau2dFHPDpH4ML/p1P+WB4ZYyWX5YAciNJf8AhVv3R6z26D0FicNj8EcRQekGxFIKXFrkMtwJkxzwaR+DC/6dT/lmN01y/wAXiamHqVFohsO4q08qOBm9k+3dzcahstDsm/TneWtj59T/APpw/wCE38czPJc/0loKphjrq0lNJR/iSz0PpbIv0M5pyp5U19IOlSuKYKKVHRqyggm+sMx1xvJTlXiNHmoaApnpAoYVFZh7JOUizCx9o98N9y+rj9S34ronLpho/Q9DAqbPUARrddv6yu3YWIH+ZHcz+O6TA18PTcLWRmKk67B19hyOuzBtXAb5zTlPynxGPdKlfIMi5VWmCqi5uTZmJudXX/dE8eidJ1sNVFag5R11XHWOtWB1MDuO4Rb7leeTk6p48OgJyk0+aww5pkVM2X9QMo6s2e2XL15tk8fOT+nIaNPG4ijVJzOq0lylRYAs3sjUdg7DL/6tY7Lbo8Pm2Zsr/wAOe1/zaafj9I1cRVarWcu7bWPZqAA1AbgNULeyOTlx6dTK12jnV0JVxOFU0VLvSfOUGtmUqVbKOsi4NuBmj82fJ7ENjadZqTpTpXZmdWUE5WVUW+03N+AHETdec/TdfBrh6tB8rdIwIIurLlvlYdY1DjNJx3OfjqiFFFKkSLF6atm/ZzMQvd9Y7rbTnvFOXqy3uNmradpDT41jKKX6IWvqzkmoBf5iE7YfLjTGlcNiD0ALUGAKFaQfKbAMjEC4N7nXtBG4zklydZNztJ6777zc9Fc5OOpIEbo6wA1NUDZ7dV2UjN2kX4xbZY+pllmVs773Gdx1bS7YCpXxFalTptTYNTenlqFWugW2X2Wa4A1/3hsmX5IY2rV0QFwrAYikCgBsfaVswBvq9pLazszcJzflDyrxONsKzAIDcU0GVAd5BJLHtJ4Tz6D03XwlTpKD5SdTA61cdQZevt2i5tDZT1OOOfzZrX5brorTumq9UUQCjXszVKGVUA2liV1feeXSxxI0phExVWnVqLUpa6YsFBqAhTqGvr7CIFfnNxrJZVoodmZVYkcQGYgfUGatR0hUWuuIJz1A4q5nubsCGBbXci4htOfNjqSZXLv8t353v19D8Nv4hNCUzJ8oeUFbGsj1ggKAqMisBrN9eZjMaIr5Yc+cz5LlPDpPNZgAlOtjKmoa0UnqRfaqN2XsP2DD/wCqC9WFb61B/wDM1IcrMR+i/oYFJaeXJdVYORe7a81rtrvq6zsmFEe/s2/k3DDHHj/v9uvcmeWqYut0PRGmcpZSXDZrWuuwa7G/0M0c6L/RtM06QFl6ZGTdkbWoHZrX9mYTRuMehVSrT95DcX2bLEEbiCQe0z16V5V16uJpYhlpCpRtlIVgDsYBrsbgEnYRtMjO9ptPJ6iZ4Y3PzMpf6bFzufr6H4bfxTR1mQ5QcoK2NZHrBAUBUZAQLE313YzHLMs7u2uD1fJjycuWWPimrGrFLGrJclNWSRZIJcoEIS+kb4j3yxUO8987XsUEIGQVG3nvhdI28wKqtfVvm01ucTSjo1JsYxRlKMvR0NakZSLinfZqmsiod5hCod5iTuxa7PqPvLEJXNtp2jr7ZBUO898EVBCBkWod574Qc7zEirEIGQOd5hBzvMEVBGH7DyEoVDvPfGFzv6h18BEiqliQVDvMIOd5iRViEDIHO+EHO8wRV3jKe2AHO+Npub7T+REhneUfK7E45USv0dkbMMildZFtdyeqYMSg53ww53+MCyyuV3asQhKFQ74aud8EIBGCDnO8wwx3+MCEo1fX1hTw6VqMFFiR7W87jMctdvibvMNrmG5tsIhrMAtZviPeY1KrfEe8yepNx0zgjBMKtZviPfGrVb4j3xdaL2ZcTy1/eP08hELVbee8xuc329Q8hJyy2yzu4NY1ItWO+OVjvkMKYsasUrHfHKx3wRRrJLDGSCXJxCEGGs7XsVwoKyxBNGIQEAQxEimDYe0eTSCQbD2j/wBpBBFGIUAQwYkVaw4IhCCaIRjfYeQixGt6eQiRViWsEQliRRiEIIMIGCKO8ZS2/ndFqI2nt7/KJCxCgCEBBAwIQMEQhAhCHBEKBPJpb3B832MxyzI6W9xfm+xmNWTW+PtNSOWKWNWTUZGrHLFJGrJrDI5Y/wBB5CIWPv5DyEljkYsasUsasGVNWNWKSNWDOnLKkEkEuUiWIIhCdr2QhCEAQ4JohCEGEIkUYOo9o8jLEpRqPaPIy4JooYgCGImdEIQgiFBNGIZ+w8hAEY32HkIkVIQlCEDEirEYIAhwRRD8+MZTGv8APGLEZS2/ndEhYhCAIwQQIQgYIhCBCEYBAhCBPJpb3F+b7GY1ZktLe4vzfYzGpJrfH2mrHJFLGrJqMjkjViljVksMjlj/AEHkIhY/0HkJLHIxY1YpY1IMqasakUsasGdNWSQSQS5SIQlBR8Q8fSEE4jx9J2vYoDCEgX/EPH0l5eI8fSBVYhCQIPiHj6QgvEePpEiiHuntHkZBCC6jrG0b+PCQLxHj6QTUEKQDiPH0hBeI8fSJFWIQMrLxHj6Q7cR4+kEVYjG2/QeUALxHj6RhXXtHVv3DhEiqEMSgBvHj6QgBvHj6QRViGIOXiPH0hheI8fSJFWIyltggcR4+kNbDWT1E9e6JHyimEsx66XpfEf3TCGlqXxH90x6O8Of2ZECFMeNK0t5/dMYNK0t57jBP0s/s94hCeFdJ0957jDGkqe89xiL6eX2TS3uL832Mxqz24/Eo6gKdjX1g7jPIoG8ePpJrTGWY9xrHLFoOI8fSNUcR4+kmoyMWPSKUcR4+kcg4jx9JLDIxY/0HkIpRxHj6R1te0bBv3DhJY5DWNWLQcR4+kao4jx9IMqYsasWoG8eMag4+fpBFNWSRRx85IIcnWEJJJ2vZCX8+MkuSCaOF+fCSSJFM6vr9mkWVJBFMEsfYySRIphlSSRJMX890Z/LykkgiiG2ENskkTOiEJJJIJolEJth7D5GSSJM8xqSRiySTR9WmLGLJJJZZGrGLLkkscj12fX7RiiSSTWORix1OVJJrHI9Y1Nkkklhkcsf1/QeQkkkscjEjVkkgxpqRySSQRTBskkkgl//Z;" vertex="1" parent="1">
          <mxGeometry x="201.02" y="251.11" width="73.96" height="38.89" as="geometry" />
        </mxCell>
        <mxCell id="zaFSHCAwjgW-AeNehu4j-48" style="edgeStyle=orthogonalEdgeStyle;rounded=0;orthogonalLoop=1;jettySize=auto;html=1;exitX=0.5;exitY=0;exitDx=0;exitDy=0;entryX=1;entryY=0.25;entryDx=0;entryDy=0;strokeColor=#FF66FF;" edge="1" parent="1" source="zaFSHCAwjgW-AeNehu4j-45" target="zaFSHCAwjgW-AeNehu4j-7">
          <mxGeometry relative="1" as="geometry" />
        </mxCell>
        <mxCell id="zaFSHCAwjgW-AeNehu4j-45" value="" style="image;aspect=fixed;perimeter=ellipsePerimeter;html=1;align=center;shadow=0;dashed=0;fontColor=#4277BB;labelBackgroundColor=default;fontSize=12;spacingTop=3;image=img/lib/ibm/blockchain/smart_contract.svg;" vertex="1" parent="1">
          <mxGeometry x="550" y="220" width="50" height="50" as="geometry" />
        </mxCell>
        <mxCell id="zaFSHCAwjgW-AeNehu4j-49" value="&lt;span style=&quot;text-wrap-mode: wrap;&quot;&gt;WeaveMint.sol&lt;/span&gt;" style="text;html=1;align=center;verticalAlign=middle;resizable=0;points=[];autosize=1;strokeColor=none;fillColor=none;" vertex="1" parent="1">
          <mxGeometry x="500" y="270" width="100" height="30" as="geometry" />
        </mxCell>
        <mxCell id="zaFSHCAwjgW-AeNehu4j-53" value="Text-to-Image" style="text;html=1;align=center;verticalAlign=middle;resizable=0;points=[];autosize=1;strokeColor=none;fillColor=none;" vertex="1" parent="1">
          <mxGeometry x="188" y="284.94" width="100" height="30" as="geometry" />
        </mxCell>
        <mxCell id="zaFSHCAwjgW-AeNehu4j-58" value="user" style="text;html=1;align=center;verticalAlign=middle;resizable=0;points=[];autosize=1;strokeColor=none;fillColor=none;" vertex="1" parent="1">
          <mxGeometry x="188" y="369.88" width="50" height="30" as="geometry" />
        </mxCell>
        <mxCell id="zaFSHCAwjgW-AeNehu4j-59" value="Explorer" style="text;html=1;align=center;verticalAlign=middle;resizable=0;points=[];autosize=1;strokeColor=none;fillColor=none;" vertex="1" parent="1">
          <mxGeometry x="285" y="450" width="70" height="30" as="geometry" />
        </mxCell>
        <mxCell id="zaFSHCAwjgW-AeNehu4j-60" value="Marketplace" style="text;html=1;align=center;verticalAlign=middle;resizable=0;points=[];autosize=1;strokeColor=none;fillColor=none;" vertex="1" parent="1">
          <mxGeometry x="360" y="450" width="90" height="30" as="geometry" />
        </mxCell>
        <mxCell id="zaFSHCAwjgW-AeNehu4j-61" value="DApp" style="text;html=1;align=center;verticalAlign=middle;resizable=0;points=[];autosize=1;strokeColor=none;fillColor=none;" vertex="1" parent="1">
          <mxGeometry x="310" y="340" width="50" height="30" as="geometry" />
        </mxCell>
        <mxCell id="zaFSHCAwjgW-AeNehu4j-62" value="WVM V2" style="text;html=1;align=center;verticalAlign=middle;resizable=0;points=[];autosize=1;strokeColor=none;fillColor=none;" vertex="1" parent="1">
          <mxGeometry x="450" y="240" width="70" height="30" as="geometry" />
        </mxCell>
        <mxCell id="zaFSHCAwjgW-AeNehu4j-67" style="edgeStyle=orthogonalEdgeStyle;rounded=0;orthogonalLoop=1;jettySize=auto;html=1;exitX=0.75;exitY=0;exitDx=0;exitDy=0;entryX=1;entryY=0.5;entryDx=0;entryDy=0;shape=link;" edge="1" parent="1" source="zaFSHCAwjgW-AeNehu4j-63" target="zaFSHCAwjgW-AeNehu4j-45">
          <mxGeometry relative="1" as="geometry">
            <Array as="points">
              <mxPoint x="603" y="360" />
              <mxPoint x="630" y="360" />
              <mxPoint x="630" y="245" />
            </Array>
          </mxGeometry>
        </mxCell>
        <mxCell id="zaFSHCAwjgW-AeNehu4j-63" value="Encode/Decode Metadata via ERC721WeaveVMStorage.sol" style="shape=process;whiteSpace=wrap;html=1;backgroundOutline=1;" vertex="1" parent="1">
          <mxGeometry x="445" y="399.88" width="210" height="40" as="geometry" />
        </mxCell>
        <mxCell id="zaFSHCAwjgW-AeNehu4j-66" value="Storage" style="text;html=1;align=center;verticalAlign=middle;resizable=0;points=[];autosize=1;strokeColor=none;fillColor=none;" vertex="1" parent="1">
          <mxGeometry x="313" y="141.11" width="70" height="30" as="geometry" />
        </mxCell>
      </root>
    </mxGraphModel>
  </diagram>
</mxfile>
